<mxfile host="Electron" agent="Mozilla/5.0 (Macintosh; Intel Mac OS X 10_15_7) AppleWebKit/537.36 (KHTML, like Gecko) draw.io/24.7.8 Chrome/128.0.6613.36 Electron/32.0.1 Safari/537.36" version="24.7.8">
  <diagram name="Page-1" id="xOGaEj3n3Ma8aQ4fVNjq">
    <mxGraphModel dx="1434" dy="854" grid="1" gridSize="10" guides="1" tooltips="1" connect="1" arrows="1" fold="1" page="1" pageScale="1" pageWidth="850" pageHeight="1100" math="0" shadow="0">
      <root>
        <mxCell id="0" />
        <mxCell id="1" parent="0" />
        <mxCell id="PG1NwsPS0rDYAJhcrPgO-69" value="" style="rounded=0;whiteSpace=wrap;html=1;fillColor=default;dashed=1;dashPattern=8 8;" vertex="1" parent="1">
          <mxGeometry x="225" y="269" width="450" height="240" as="geometry" />
        </mxCell>
        <mxCell id="PG1NwsPS0rDYAJhcrPgO-68" value="" style="rounded=0;whiteSpace=wrap;html=1;fillColor=default;dashed=1;dashPattern=8 8;" vertex="1" parent="1">
          <mxGeometry x="217" y="259" width="450" height="240" as="geometry" />
        </mxCell>
        <mxCell id="PG1NwsPS0rDYAJhcrPgO-67" value="" style="rounded=0;whiteSpace=wrap;html=1;fillColor=default;strokeWidth=2;" vertex="1" parent="1">
          <mxGeometry x="209" y="250" width="450" height="240" as="geometry" />
        </mxCell>
        <mxCell id="PG1NwsPS0rDYAJhcrPgO-1" value="Source" style="shape=cylinder3;whiteSpace=wrap;html=1;boundedLbl=1;backgroundOutline=1;size=15;strokeWidth=2;" vertex="1" parent="1">
          <mxGeometry x="40" y="313.63" width="80" height="108" as="geometry" />
        </mxCell>
        <mxCell id="PG1NwsPS0rDYAJhcrPgO-2" value="Target" style="shape=cylinder3;whiteSpace=wrap;html=1;boundedLbl=1;backgroundOutline=1;size=15;strokeWidth=2;" vertex="1" parent="1">
          <mxGeometry x="720" y="310.16" width="80" height="111.67" as="geometry" />
        </mxCell>
        <mxCell id="PG1NwsPS0rDYAJhcrPgO-4" value="" style="rounded=1;whiteSpace=wrap;html=1;fillColor=#1ba1e2;fontColor=#ffffff;strokeColor=#006EAF;strokeWidth=2;" vertex="1" parent="1">
          <mxGeometry x="229" y="270" width="120" height="200" as="geometry" />
        </mxCell>
        <mxCell id="PG1NwsPS0rDYAJhcrPgO-72" value="" style="rounded=0;whiteSpace=wrap;html=1;dashed=1;" vertex="1" parent="1">
          <mxGeometry x="248" y="365.63" width="100" height="24" as="geometry" />
        </mxCell>
        <mxCell id="PG1NwsPS0rDYAJhcrPgO-18" value="" style="rounded=0;whiteSpace=wrap;html=1;dashed=1;" vertex="1" parent="1">
          <mxGeometry x="243" y="360" width="100" height="24" as="geometry" />
        </mxCell>
        <mxCell id="PG1NwsPS0rDYAJhcrPgO-5" value="" style="shape=cylinder3;whiteSpace=wrap;html=1;boundedLbl=1;backgroundOutline=1;size=8.00500000000011;rotation=90;" vertex="1" parent="1">
          <mxGeometry x="278" y="376" width="30" height="100" as="geometry" />
        </mxCell>
        <mxCell id="PG1NwsPS0rDYAJhcrPgO-7" value="Reader" style="text;html=1;align=center;verticalAlign=middle;whiteSpace=wrap;rounded=0;fontColor=#FFFFFF;fontStyle=1" vertex="1" parent="1">
          <mxGeometry x="256" y="269" width="60" height="30" as="geometry" />
        </mxCell>
        <mxCell id="PG1NwsPS0rDYAJhcrPgO-9" value="Key&amp;nbsp;&lt;span style=&quot;background-color: initial;&quot;&gt;Reader&lt;/span&gt;" style="rounded=0;whiteSpace=wrap;html=1;" vertex="1" parent="1">
          <mxGeometry x="239.5" y="307" width="100" height="24" as="geometry" />
        </mxCell>
        <mxCell id="PG1NwsPS0rDYAJhcrPgO-11" value="" style="endArrow=classic;html=1;rounded=0;" edge="1" parent="1" source="PG1NwsPS0rDYAJhcrPgO-12" target="PG1NwsPS0rDYAJhcrPgO-16">
          <mxGeometry width="50" height="50" relative="1" as="geometry">
            <mxPoint x="268" y="236" as="sourcePoint" />
            <mxPoint x="282" y="436" as="targetPoint" />
          </mxGeometry>
        </mxCell>
        <mxCell id="PG1NwsPS0rDYAJhcrPgO-12" value="Value&amp;nbsp;&lt;span style=&quot;background-color: initial;&quot;&gt;Reader&lt;/span&gt;" style="rounded=0;whiteSpace=wrap;html=1;" vertex="1" parent="1">
          <mxGeometry x="239.5" y="354" width="100" height="24" as="geometry" />
        </mxCell>
        <mxCell id="PG1NwsPS0rDYAJhcrPgO-15" value="" style="endArrow=classic;html=1;rounded=0;" edge="1" parent="1" source="PG1NwsPS0rDYAJhcrPgO-9" target="PG1NwsPS0rDYAJhcrPgO-12">
          <mxGeometry width="50" height="50" relative="1" as="geometry">
            <mxPoint x="271" y="340" as="sourcePoint" />
            <mxPoint x="270.5" y="370" as="targetPoint" />
          </mxGeometry>
        </mxCell>
        <mxCell id="PG1NwsPS0rDYAJhcrPgO-16" value="&lt;font style=&quot;font-size: 10px;&quot; face=&quot;Courier New&quot;&gt;&lt;b&gt;read-queue&lt;/b&gt;&lt;/font&gt;" style="text;html=1;align=center;verticalAlign=middle;whiteSpace=wrap;rounded=0;" vertex="1" parent="1">
          <mxGeometry x="239.5" y="410" width="100" height="30" as="geometry" />
        </mxCell>
        <mxCell id="PG1NwsPS0rDYAJhcrPgO-19" value="read-threads" style="text;align=center;verticalAlign=middle;whiteSpace=wrap;rounded=0;spacing=0;html=1;fontFamily=Courier New;fontSize=10;fontStyle=1" vertex="1" parent="1">
          <mxGeometry x="289" y="382" width="86" height="30" as="geometry" />
        </mxCell>
        <mxCell id="PG1NwsPS0rDYAJhcrPgO-22" value="" style="endArrow=classic;html=1;rounded=0;" edge="1" parent="1" source="PG1NwsPS0rDYAJhcrPgO-12" target="PG1NwsPS0rDYAJhcrPgO-1">
          <mxGeometry width="50" height="50" relative="1" as="geometry">
            <mxPoint x="456" y="480" as="sourcePoint" />
            <mxPoint x="506" y="430" as="targetPoint" />
          </mxGeometry>
        </mxCell>
        <mxCell id="PG1NwsPS0rDYAJhcrPgO-23" value="&lt;font style=&quot;font-size: 10px;&quot; face=&quot;Courier New&quot;&gt;read-batch&lt;/font&gt;" style="edgeLabel;html=1;align=center;verticalAlign=middle;resizable=0;points=[];labelBackgroundColor=default;fontSize=10;fontStyle=1" vertex="1" connectable="0" parent="PG1NwsPS0rDYAJhcrPgO-22">
          <mxGeometry x="-0.3291" y="-2" relative="1" as="geometry">
            <mxPoint x="-36" y="-7" as="offset" />
          </mxGeometry>
        </mxCell>
        <mxCell id="PG1NwsPS0rDYAJhcrPgO-24" value="" style="endArrow=classic;html=1;rounded=0;exitX=0;exitY=0.5;exitDx=0;exitDy=0;entryX=1.025;entryY=0.204;entryDx=0;entryDy=0;entryPerimeter=0;" edge="1" parent="1" source="PG1NwsPS0rDYAJhcrPgO-9" target="PG1NwsPS0rDYAJhcrPgO-1">
          <mxGeometry width="50" height="50" relative="1" as="geometry">
            <mxPoint x="456" y="480" as="sourcePoint" />
            <mxPoint x="506" y="430" as="targetPoint" />
          </mxGeometry>
        </mxCell>
        <mxCell id="PG1NwsPS0rDYAJhcrPgO-25" value="&lt;font style=&quot;font-size: 10px;&quot; face=&quot;Courier New&quot;&gt;scan-count&lt;/font&gt;" style="edgeLabel;html=1;align=center;verticalAlign=middle;resizable=0;points=[];fontSize=10;fontStyle=1" vertex="1" connectable="0" parent="PG1NwsPS0rDYAJhcrPgO-24">
          <mxGeometry x="-0.1062" relative="1" as="geometry">
            <mxPoint x="-21" y="-1" as="offset" />
          </mxGeometry>
        </mxCell>
        <mxCell id="PG1NwsPS0rDYAJhcrPgO-29" value="" style="rounded=1;whiteSpace=wrap;html=1;fillColor=#f0a30a;fontColor=#000000;strokeColor=#BD7000;strokeWidth=2;" vertex="1" parent="1">
          <mxGeometry x="516" y="270" width="120" height="200" as="geometry" />
        </mxCell>
        <mxCell id="PG1NwsPS0rDYAJhcrPgO-31" value="Writer" style="text;html=1;align=center;verticalAlign=middle;whiteSpace=wrap;rounded=0;fontStyle=1;fontColor=#FFFFFF;" vertex="1" parent="1">
          <mxGeometry x="543.5" y="270" width="60" height="30" as="geometry" />
        </mxCell>
        <mxCell id="PG1NwsPS0rDYAJhcrPgO-40" value="&lt;div&gt;&lt;span style=&quot;background-color: initial;&quot;&gt;Executor&lt;/span&gt;&lt;/div&gt;" style="whiteSpace=wrap;html=1;" vertex="1" parent="1">
          <mxGeometry x="526" y="354" width="100" height="24" as="geometry" />
        </mxCell>
        <mxCell id="PG1NwsPS0rDYAJhcrPgO-41" value="" style="endArrow=classic;html=1;rounded=0;entryX=0;entryY=0.5;entryDx=0;entryDy=0;entryPerimeter=0;exitX=1;exitY=0.5;exitDx=0;exitDy=0;" edge="1" parent="1" source="PG1NwsPS0rDYAJhcrPgO-40" target="PG1NwsPS0rDYAJhcrPgO-2">
          <mxGeometry width="50" height="50" relative="1" as="geometry">
            <mxPoint x="482" y="480" as="sourcePoint" />
            <mxPoint x="532" y="430" as="targetPoint" />
          </mxGeometry>
        </mxCell>
        <mxCell id="PG1NwsPS0rDYAJhcrPgO-43" value="&lt;font style=&quot;font-size: 10px;&quot; face=&quot;Courier New&quot;&gt;batch&lt;/font&gt;" style="edgeLabel;html=1;align=center;verticalAlign=middle;resizable=0;points=[];fontSize=10;fontStyle=1" vertex="1" connectable="0" parent="PG1NwsPS0rDYAJhcrPgO-41">
          <mxGeometry x="0.3667" y="-2" relative="1" as="geometry">
            <mxPoint x="4" y="-11" as="offset" />
          </mxGeometry>
        </mxCell>
        <mxCell id="PG1NwsPS0rDYAJhcrPgO-46" value="" style="rounded=1;whiteSpace=wrap;html=1;fillColor=#647687;fontColor=#ffffff;strokeColor=#314354;strokeWidth=2;" vertex="1" parent="1">
          <mxGeometry x="375" y="270" width="120" height="200" as="geometry" />
        </mxCell>
        <mxCell id="PG1NwsPS0rDYAJhcrPgO-47" value="Processor" style="text;html=1;align=center;verticalAlign=middle;whiteSpace=wrap;rounded=0;fontColor=#FFFFFF;fontStyle=1" vertex="1" parent="1">
          <mxGeometry x="399.5" y="270" width="60" height="30" as="geometry" />
        </mxCell>
        <mxCell id="PG1NwsPS0rDYAJhcrPgO-50" value="&lt;span style=&quot;background-color: initial;&quot;&gt;Filter&lt;/span&gt;" style="rounded=0;whiteSpace=wrap;html=1;" vertex="1" parent="1">
          <mxGeometry x="381.5" y="413" width="100" height="24" as="geometry" />
        </mxCell>
        <mxCell id="PG1NwsPS0rDYAJhcrPgO-52" value="" style="endArrow=classic;html=1;rounded=0;" edge="1" parent="1" source="PG1NwsPS0rDYAJhcrPgO-50" target="PG1NwsPS0rDYAJhcrPgO-73">
          <mxGeometry width="50" height="50" relative="1" as="geometry">
            <mxPoint x="321" y="395" as="sourcePoint" />
            <mxPoint x="431" y="400.84000000000015" as="targetPoint" />
          </mxGeometry>
        </mxCell>
        <mxCell id="PG1NwsPS0rDYAJhcrPgO-60" value="" style="endArrow=classic;html=1;rounded=0;exitX=0.5;exitY=0;exitDx=0;exitDy=0;exitPerimeter=0;" edge="1" parent="1" source="PG1NwsPS0rDYAJhcrPgO-5" target="PG1NwsPS0rDYAJhcrPgO-50">
          <mxGeometry width="50" height="50" relative="1" as="geometry">
            <mxPoint x="473" y="480" as="sourcePoint" />
            <mxPoint x="523" y="430" as="targetPoint" />
          </mxGeometry>
        </mxCell>
        <mxCell id="PG1NwsPS0rDYAJhcrPgO-61" value="" style="endArrow=classic;html=1;rounded=0;exitX=1;exitY=0.5;exitDx=0;exitDy=0;" edge="1" parent="1" source="PG1NwsPS0rDYAJhcrPgO-73" target="PG1NwsPS0rDYAJhcrPgO-40">
          <mxGeometry width="50" height="50" relative="1" as="geometry">
            <mxPoint x="480" y="381" as="sourcePoint" />
            <mxPoint x="507" y="430" as="targetPoint" />
          </mxGeometry>
        </mxCell>
        <mxCell id="PG1NwsPS0rDYAJhcrPgO-70" value="&lt;font face=&quot;Courier New&quot; style=&quot;font-size: 10px;&quot;&gt;&lt;span style=&quot;background-color: initial;&quot;&gt;threads&lt;/span&gt;&lt;/font&gt;" style="text;html=1;align=center;verticalAlign=middle;whiteSpace=wrap;rounded=0;fontStyle=1" vertex="1" parent="1">
          <mxGeometry x="606.5" y="506" width="86" height="30" as="geometry" />
        </mxCell>
        <mxCell id="PG1NwsPS0rDYAJhcrPgO-73" value="Transform" style="shape=process;whiteSpace=wrap;html=1;backgroundOutline=1;" vertex="1" parent="1">
          <mxGeometry x="381.5" y="354" width="100" height="24" as="geometry" />
        </mxCell>
      </root>
    </mxGraphModel>
  </diagram>
</mxfile>
